<svg xmlns="http://www.w3.org/2000/svg" width="32" height="27.97" viewBox="0 0 32 27.97">
  <metadata><?xpacket begin="﻿" id="W5M0MpCehiHzreSzNTczkc9d"?>
<x:xmpmeta xmlns:x="adobe:ns:meta/" x:xmptk="Adobe XMP Core 5.6-c142 79.160924, 2017/07/13-01:06:39        ">
   <rdf:RDF xmlns:rdf="http://www.w3.org/1999/02/22-rdf-syntax-ns#">
      <rdf:Description rdf:about=""/>
   </rdf:RDF>
</x:xmpmeta>
                                                                                                    
                                                                                                    
                                                                                                    
                                                                                                    
                                                                                                    
                                                                                                    
                                                                                                    
                                                                                                    
                                                                                                    
                                                                                                    
                                                                                                    
                                                                                                    
                                                                                                    
                                                                                                    
                                                                                                    
                                                                                                    
                                                                                                    
                                                                                                    
                                                                                                    
                                                                                                    
                           
<?xpacket end="w"?></metadata>
<defs>
    <style>
      .cls-1 {
        fill: #adff63;
        fill-rule: evenodd;
      }
    </style>
  </defs>
  <path id="heart" class="cls-1" d="M974.2,1006.11a9.643,9.643,0,0,0-13.192-.29,9.643,9.643,0,0,0-13.192.29,9.391,9.391,0,0,0,0,13.39c1.069,1.06,11.053,10.93,11.053,10.93a3.046,3.046,0,0,0,4.278,0L974.2,1019.5A9.391,9.391,0,0,0,974.2,1006.11Zm-1.427,11.98-11.053,10.93a1.014,1.014,0,0,1-1.425,0l-11.052-10.93a7.418,7.418,0,0,1,0-10.57,7.6,7.6,0,0,1,10.409-.22l1.356,1.22,1.356-1.22a7.6,7.6,0,0,1,10.409.22A7.418,7.418,0,0,1,972.769,1018.09Zm-18.514-9.75s0,0.01,0,.01a4.245,4.245,0,0,0-4.246,4.24h0a0.5,0.5,0,0,0,1,0h0a3.254,3.254,0,0,1,3.249-3.25h0a0.5,0.5,0,0,0,.5-0.5A0.5,0.5,0,0,0,954.255,1008.34Z" transform="translate(-945 -1003.34)"/>
</svg>
